<svg xmlns="http://www.w3.org/2000/svg" xmlns:svg="http://www.w3.org/2000/svg" id="svg10" version="1.1" viewBox="0 0 120 120"><path id="path2" d="M73.265 13.79L30.958 56.096l-11.74-11.74 42.308-42.31z"/><path id="path4" d="M51.943 19.938h19.055v60.21H51.943z"/><path id="path6" d="M61.454 2l42.326 42.29-11.724 11.74-42.33-42.307zM10 99.575h103v17H10z"/><path id="path8" d="M6.5 68.576h17v48h-17zm92 0h17v48h-17z"/><path style="fill:#e6e6e6;stroke-width:.165062" id="path90" d="M 51.994498,57.48329 V 34.911559 L 41.47112,45.433974 30.947742,55.956388 25.185179,50.192062 19.422617,44.427734 40.454086,23.291818 61.485557,2.1559044 82.57219,23.237244 103.65882,44.318585 97.881775,50.095631 92.104731,55.872677 81.540673,45.309587 70.976616,34.746497 v 22.654262 22.654262 h -9.491059 -9.491059 z"/><path style="fill:#e6e6e6;stroke-width:.165062" id="path129" d="M 6.6024759,92.599725 V 68.66575 H 15.020633 23.43879 V 84.181568 99.697387 H 60.990371 98.541953 V 84.181568 68.66575 h 8.418157 8.41816 V 92.599725 116.5337 H 60.990371 6.6024759 Z"/></svg>