<svg xmlns="http://www.w3.org/2000/svg" xmlns:svg="http://www.w3.org/2000/svg" id="svg4" width="120.945" height="32mm" version="1.1" viewBox="0 0 32 32"><rect style="display:inline;opacity:.74;fill:#fbf1ce;fill-opacity:1;stroke:#000;stroke-width:.799814;stroke-linecap:butt;stroke-linejoin:round;stroke-miterlimit:4;stroke-dasharray:none;stroke-dashoffset:0;stroke-opacity:1;paint-order:stroke fill markers" id="rect2" width="31.2" height="31.2" x="94.254" y="71.468" rx="8.158" ry="8.158" transform="translate(-93.854 -71.069)"/><path style="fill:#dbefe2;fill-opacity:.6;stroke-width:.160617" id="path1156" d="M 29.633905,119.23164 C 22.434678,118.46859 16.2736,115.68485 11.181034,110.89412 5.6167075,105.65961 2.2224687,98.392365 1.6883875,90.569878 1.4740275,87.430228 1.4760057,33.255703 1.6905891,30.279349 2.7700287,15.307114 14.201425,3.3868451 29.02526,1.7756912 c 2.15878,-0.2346308 60.735582,-0.2346308 62.894362,0 13.274208,1.4427306 24.074788,11.2781048 26.787128,24.3932778 0.21559,1.042471 0.46298,2.935186 0.54974,4.206035 0.21056,3.083935 0.21056,57.110939 0,60.194874 -0.72241,10.580992 -6.59207,19.842332 -15.8189,24.959612 -2.68862,1.49113 -6.125756,2.71232 -9.476427,3.36691 l -1.766791,0.34516 -30.999153,0.0248 c -17.049534,0.0136 -31.252125,-0.002 -31.561314,-0.0348 z" transform="scale(0.26458333)"/></svg>